<?xml version="1.0"?>
<svg xmlns="http://www.w3.org/2000/svg" xmlns:xlink="http://www.w3.org/1999/xlink" xmlns:svgjs="http://svgjs.com/svgjs" version="1.1" width="512" height="512" x="0" y="0" viewBox="0 0 115.383 115.383" style="enable-background:new 0 0 512 512" xml:space="preserve" class=""><g>
<g xmlns="http://www.w3.org/2000/svg">
	<path d="M11.025,87.78h93.333c1.931,0,3.5-1.57,3.5-3.5v-60c0-1.93-1.569-3.5-3.5-3.5H11.025c-1.93,0-3.5,1.57-3.5,3.5v60   C7.525,86.21,9.096,87.78,11.025,87.78z M10.525,24.28c0-0.276,0.224-0.5,0.5-0.5h93.333c0.276,0,0.5,0.224,0.5,0.5v60   c0,0.276-0.224,0.5-0.5,0.5H11.025c-0.276,0-0.5-0.224-0.5-0.5V24.28z M115.383,90.458v2.801c0,0.742-0.602,1.344-1.344,1.344   H1.344C0.602,94.603,0,94.001,0,93.259v-2.801h47.387c0.234,0.781,0.95,1.354,1.807,1.354h16.996c0.856,0,1.572-0.572,1.807-1.354   H115.383z" fill="#ffffff" data-original="#000000" style="" class=""/>
</g>
<g xmlns="http://www.w3.org/2000/svg">
</g>
<g xmlns="http://www.w3.org/2000/svg">
</g>
<g xmlns="http://www.w3.org/2000/svg">
</g>
<g xmlns="http://www.w3.org/2000/svg">
</g>
<g xmlns="http://www.w3.org/2000/svg">
</g>
<g xmlns="http://www.w3.org/2000/svg">
</g>
<g xmlns="http://www.w3.org/2000/svg">
</g>
<g xmlns="http://www.w3.org/2000/svg">
</g>
<g xmlns="http://www.w3.org/2000/svg">
</g>
<g xmlns="http://www.w3.org/2000/svg">
</g>
<g xmlns="http://www.w3.org/2000/svg">
</g>
<g xmlns="http://www.w3.org/2000/svg">
</g>
<g xmlns="http://www.w3.org/2000/svg">
</g>
<g xmlns="http://www.w3.org/2000/svg">
</g>
<g xmlns="http://www.w3.org/2000/svg">
</g>
</g></svg>
