<?xml version="1.0"?>
<svg xmlns="http://www.w3.org/2000/svg" xmlns:xlink="http://www.w3.org/1999/xlink" xmlns:svgjs="http://svgjs.com/svgjs" version="1.1" width="512" height="512" x="0" y="0" viewBox="0 0 512.001 512.001" style="enable-background:new 0 0 512 512" xml:space="preserve" class=""><g>
<g xmlns="http://www.w3.org/2000/svg">
	<g>
		<path d="M129.295,460.215h-8.701c-4.143,0-7.501,3.357-7.501,7.501c0,4.143,3.357,7.5,7.501,7.5h8.701c4.143,0,7.5-3.357,7.5-7.5    C136.796,463.572,133.439,460.215,129.295,460.215z" fill="#ffffff" data-original="#000000" style="" class=""/>
	</g>
</g>
<g xmlns="http://www.w3.org/2000/svg">
	<g>
		<path d="M498.841,264.451c-6.078-6.078-51.332-51.332-57.41-57.41c-7.278-7.277-18.73-7.85-26.692-1.763l-12.896-12.896    c39.822-45.24,38.574-114.779-5.129-158.481c-48.417-48.417-128.636-44.596-172.11,9.052c-1.877,0-193.01,0-195.668,0    c-11.975,0-21.717,9.742-21.717,21.717v425.614c0,11.975,9.742,21.717,21.717,21.717c5.716,0,152.48,0,163.933,0    c4.143,0,7.5-3.357,7.5-7.501s-3.357-7.501-7.5-7.501H78.621c-3.702,0-6.716-3.013-6.716-6.715V64.671    c0-3.702,3.012-6.716,6.716-6.716h135.681c-11.628,20.172-16.69,43.121-15.183,65.713h-16.677c-4.143,0-7.501,3.358-7.501,7.501    s3.357,7.501,7.501,7.501h18.661c2.125,10.683,5.757,21.122,10.904,30.971h-91.412c-4.143,0-7.5,3.358-7.5,7.5    c0,4.142,3.357,7.501,7.5,7.501h100.786c5.396,7.316,11.647,13.908,17.97,19.326H120.595c-4.143,0-7.501,3.357-7.501,7.501    s3.357,7.501,7.501,7.501h141.079c38.165,19.575,83.434,16.179,117.557-6.734v67.552c0,4.143,3.357,7.501,7.501,7.501    s7.501-3.357,7.501-7.501v-73.8l9.901,9.9c-6.139,8.02-5.477,19.45,1.763,26.692c11.467,11.467,45.928,45.927,57.41,57.409    c7.923,7.925,20.815,7.922,28.737,0.001l6.799-6.799C506.764,285.266,506.763,272.373,498.841,264.451z M28.935,497    c-3.702,0-6.715-3.013-6.715-6.715V64.67c0-3.703,3.013-6.716,6.715-6.716h29.031c-0.712,2.189-1.063,4.557-1.063,6.714v0.001    v425.614c0.001,2.208,0.354,4.515,1.064,6.716H28.935z M386.106,187.254c-58.198,58.203-158.286,25.62-170.971-55.741    c0.04-0.889-0.042-1.719-0.363-2.693c-7.85-60.954,39.4-113.826,99.963-113.826C404.976,14.993,449.066,124.294,386.106,187.254z     M416.502,231.969c-2.059-2.059-2.058-5.463,0.001-7.522l6.799-6.799c2.072-2.074,5.448-2.074,7.522,0l23.402,23.401l-14.32,14.32    L416.502,231.969z M488.233,282.581l-6.798,6.798c-2.054,2.056-5.46,2.063-7.522,0l-23.402-23.402l14.32-14.32l23.403,23.402    C490.293,277.118,490.293,280.524,488.233,282.581z" fill="#ffffff" data-original="#000000" style="" class=""/>
	</g>
</g>
<g xmlns="http://www.w3.org/2000/svg">
	<g>
		<path d="M330.542,238.295H120.595c-4.143,0-7.501,3.357-7.501,7.501s3.357,7.501,7.501,7.501h209.947    c4.143,0,7.501-3.357,7.501-7.501S334.685,238.295,330.542,238.295z" fill="#ffffff" data-original="#000000" style="" class=""/>
	</g>
</g>
<g xmlns="http://www.w3.org/2000/svg">
	<g>
		<path d="M330.542,272.622H120.595c-4.143,0-7.501,3.357-7.501,7.501c0,4.143,3.357,7.5,7.501,7.5h209.947    c4.143,0,7.501-3.357,7.501-7.5C338.043,275.979,334.685,272.622,330.542,272.622z" fill="#ffffff" data-original="#000000" style="" class=""/>
	</g>
</g>
<g xmlns="http://www.w3.org/2000/svg">
	<g>
		<path d="M330.542,306.951H120.595c-4.143,0-7.501,3.357-7.501,7.501s3.357,7.501,7.501,7.501h209.947    c4.143,0,7.501-3.357,7.501-7.501S334.685,306.951,330.542,306.951z" fill="#ffffff" data-original="#000000" style="" class=""/>
	</g>
</g>
<g xmlns="http://www.w3.org/2000/svg">
	<g>
		<path d="M330.542,341.278H209.357h-88.762c-4.143,0-7.5,3.357-7.5,7.501s3.357,7.501,7.5,7.501h88.762h121.185    c4.143,0,7.501-3.357,7.501-7.501S334.685,341.278,330.542,341.278z" fill="#ffffff" data-original="#000000" style="" class=""/>
	</g>
</g>
<g xmlns="http://www.w3.org/2000/svg">
	<g>
		<path d="M330.542,375.605H120.595c-4.143,0-7.501,3.357-7.501,7.501s3.357,7.501,7.501,7.501h209.947    c4.143,0,7.501-3.357,7.501-7.501S334.685,375.605,330.542,375.605z" fill="#ffffff" data-original="#000000" style="" class=""/>
	</g>
</g>
<g xmlns="http://www.w3.org/2000/svg">
	<g>
		<path d="M314.735,21.351c-83.988,0-126.284,101.987-66.871,161.401c36.901,36.9,96.896,36.846,133.743,0    C440.255,124.103,399.782,21.353,314.735,21.351z M370.998,172.145c-31.023,31.023-81.502,31.024-112.527,0    c-49.97-49.969-14.434-135.793,56.263-135.793C386.315,36.354,420.33,122.814,370.998,172.145z" fill="#ffffff" data-original="#000000" style="" class=""/>
	</g>
</g>
<g xmlns="http://www.w3.org/2000/svg">
	<g>
		<path d="M386.731,307.288c-4.143,0-7.501,3.357-7.501,7.501v86.925h-73.57c-6.876,0-13.012,3.216-16.994,8.22H120.595    c-4.143,0-7.501,3.357-7.501,7.501c0,4.143,3.357,7.5,7.501,7.5h163.349V497h-56.072c-4.143,0-7.501,3.357-7.501,7.501    s3.357,7.501,7.501,7.501h63.573c1.393,0,2.919-0.433,4.155-1.256c0.438-0.291,0.821-0.612,1.149-0.94l95.287-95.286    c1.352-1.352,2.196-3.289,2.196-5.304v-94.426C394.232,310.646,390.873,307.288,386.731,307.288z M298.945,486.392V423.43    c0-3.702,3.013-6.716,6.715-6.716h62.964C361.242,424.096,306.325,479.012,298.945,486.392z" fill="#ffffff" data-original="#000000" style="" class=""/>
	</g>
</g>
<g xmlns="http://www.w3.org/2000/svg">
</g>
<g xmlns="http://www.w3.org/2000/svg">
</g>
<g xmlns="http://www.w3.org/2000/svg">
</g>
<g xmlns="http://www.w3.org/2000/svg">
</g>
<g xmlns="http://www.w3.org/2000/svg">
</g>
<g xmlns="http://www.w3.org/2000/svg">
</g>
<g xmlns="http://www.w3.org/2000/svg">
</g>
<g xmlns="http://www.w3.org/2000/svg">
</g>
<g xmlns="http://www.w3.org/2000/svg">
</g>
<g xmlns="http://www.w3.org/2000/svg">
</g>
<g xmlns="http://www.w3.org/2000/svg">
</g>
<g xmlns="http://www.w3.org/2000/svg">
</g>
<g xmlns="http://www.w3.org/2000/svg">
</g>
<g xmlns="http://www.w3.org/2000/svg">
</g>
<g xmlns="http://www.w3.org/2000/svg">
</g>
</g></svg>
