<?xml version="1.0"?>
<svg xmlns="http://www.w3.org/2000/svg" xmlns:xlink="http://www.w3.org/1999/xlink" xmlns:svgjs="http://svgjs.com/svgjs" version="1.1" width="100%" height="auto" x="0" y="0" viewBox="0 0 512 512" style="enable-background:new 0 0 512 512" xml:space="preserve" class=""><g transform="matrix(0.9999999999999999,0,0,0.9999999999999999,2.842170943040401e-14,60.00000000000017)"><path xmlns="http://www.w3.org/2000/svg" d="m272.03125 328.140625h-87.671875v64.125h95.1875v-64.125zm0 0" fill="#8a8e95" data-original="#00e9cc" style="" class=""/><path xmlns="http://www.w3.org/2000/svg" d="m448.375 0h-432.84375c-8.566406 0-15.53125 6.964844-15.53125 15.53125v304.59375c0 8.5625 6.964844 15.53125 15.53125 15.53125h288.5625v-15.03125h-288.5625c-.277344 0-.5-.222656-.5-.5v-32.5625h265.015625v-15.03125h-265.015625v-257c0-.277344.222656-.5.5-.5h432.84375c.277344 0 .5.222656.5.5v72.140625h15.03125v-72.140625c0-8.566406-6.964844-15.53125-15.53125-15.53125zm0 0" fill="#8a8e95" data-original="#000000" style="" class=""/><path xmlns="http://www.w3.org/2000/svg" d="m151.796875 384.75h160.3125v15.03125h-160.3125zm0 0" fill="#8a8e95" data-original="#000000" style="" class=""/><path xmlns="http://www.w3.org/2000/svg" d="m296.578125 320.625v31.5625c0 8.5625 6.96875 15.53125 15.53125 15.53125h136.265625c8.566406 0 15.53125-6.96875 15.53125-15.53125v-31.5625zm0 0" fill="#8a8e95" data-original="#00e9cc" style="" class=""/><path xmlns="http://www.w3.org/2000/svg" d="m448.875 288.0625v32.5625h-137.265625v-168.828125c0-.277344.226563-.5.5-.5h96.1875v-15.03125h-96.1875c-8.5625 0-15.53125 6.96875-15.53125 15.53125v183.859375h167.328125v-47.59375zm0 0" fill="#8a8e95" data-original="#000000" style="" class=""/><path xmlns="http://www.w3.org/2000/svg" d="m496.46875 104.203125h-80.15625c-8.5625 0-15.53125 6.96875-15.53125 15.53125v31.5625h111.21875v-31.5625c0-8.5625-6.964844-15.53125-15.53125-15.53125zm0 0" fill="#8a8e95" data-original="#00e9cc" style="" class=""/><path xmlns="http://www.w3.org/2000/svg" d="m400.78125 248.484375v31.5625c0 8.5625 6.96875 15.53125 15.53125 15.53125h80.15625c8.566406 0 15.53125-6.96875 15.53125-15.53125v-31.5625zm0 0" fill="#8a8e95" data-original="#00e9cc" style="" class=""/><path xmlns="http://www.w3.org/2000/svg" d="m511.984375 151.296875v-15.03125h-111.203125v127.25h111.203125v-15.03125h.015625v-97.1875zm-96.171875 97.1875v-97.1875h81.15625v97.1875zm0 0" fill="#8a8e95" data-original="#000000" style="" class=""/><g xmlns="http://www.w3.org/2000/svg" fill="#00e9cc"><path d="m191.875 240.46875h16.03125v15.03125h-16.03125zm0 0" fill="#8a8e95" data-original="#00e9cc" style="" class=""/><path d="m223.9375 240.46875h16.03125v15.03125h-16.03125zm0 0" fill="#8a8e95" data-original="#00e9cc" style="" class=""/><path d="m256 240.46875h16.03125v15.03125h-16.03125zm0 0" fill="#8a8e95" data-original="#00e9cc" style="" class=""/></g><path xmlns="http://www.w3.org/2000/svg" d="m47.09375 71.640625h-15.03125v-39.578125h39.578125v15.03125h-24.546875zm0 0" fill="#8a8e95" data-original="#000000" style="" class=""/><path xmlns="http://www.w3.org/2000/svg" d="m335.65625 191.875h-15.03125v-31.5625h31.5625v15.03125h-16.53125zm0 0" fill="#8a8e95" data-original="#000000" style="" class=""/><path xmlns="http://www.w3.org/2000/svg" d="m439.859375 191.875h-15.03125v-31.5625h31.5625v15.03125h-16.53125zm0 0" fill="#8a8e95" data-original="#000000" style="" class=""/></g></svg>
