<?xml version="1.0"?>
<svg xmlns="http://www.w3.org/2000/svg" xmlns:xlink="http://www.w3.org/1999/xlink" xmlns:svgjs="http://svgjs.com/svgjs" version="1.1" width="512" height="512" x="0" y="0" viewBox="0 0 511.99 511.99" style="enable-background:new 0 0 512 512" xml:space="preserve" class=""><g>
<g xmlns="http://www.w3.org/2000/svg">
	<g>
		<path d="M263.536,141.79L124.87,3.123c-4.16-4.16-10.923-4.16-15.083,0L3.121,109.79c-4.16,4.16-4.16,10.923,0,15.083    l138.667,138.667c2.091,2.069,4.821,3.115,7.552,3.115c2.731,0,5.461-1.045,7.531-3.136c4.16-4.16,4.16-10.923,0-15.083    L25.755,117.32l91.584-91.584l131.115,131.136c4.16,4.16,10.923,4.16,15.083,0C267.697,152.712,267.697,145.95,263.536,141.79z" fill="#ffffff" data-original="#000000" style="" class=""/>
	</g>
</g>
<g xmlns="http://www.w3.org/2000/svg">
	<g>
		<path d="M508.87,387.123L370.203,248.456c-4.16-4.16-10.923-4.16-15.083,0c-4.16,4.16-4.16,10.923,0,15.083l131.115,131.115    l-91.584,91.584L263.536,355.123c-4.16-4.16-10.923-4.16-15.083,0s-4.16,10.923,0,15.083l138.667,138.667    c2.091,2.069,4.821,3.115,7.552,3.115s5.461-1.045,7.531-3.115L508.87,402.206C513.03,398.046,513.03,391.283,508.87,387.123z" fill="#ffffff" data-original="#000000" style="" class=""/>
	</g>
</g>
<g xmlns="http://www.w3.org/2000/svg">
	<g>
		<path d="M156.87,35.123c-4.16-4.16-10.923-4.16-15.083,0l-32,32c-4.16,4.16-4.16,10.923,0,15.083    c2.091,2.069,4.821,3.115,7.552,3.115c2.731,0,5.461-1.045,7.531-3.115l32-32C161.03,46.046,161.03,39.283,156.87,35.123z" fill="#ffffff" data-original="#000000" style="" class=""/>
	</g>
</g>
<g xmlns="http://www.w3.org/2000/svg">
	<g>
		<path d="M188.87,67.123c-4.16-4.16-10.923-4.16-15.083,0l-21.333,21.333c-4.16,4.16-4.16,10.923,0,15.083    c2.091,2.069,4.821,3.115,7.552,3.115s5.461-1.045,7.531-3.115l21.333-21.333C193.03,78.046,193.03,71.283,188.87,67.123z" fill="#ffffff" data-original="#000000" style="" class=""/>
	</g>
</g>
<g xmlns="http://www.w3.org/2000/svg">
	<g>
		<path d="M220.87,99.123c-4.16-4.16-10.923-4.16-15.083,0l-32,32c-4.16,4.16-4.16,10.923,0,15.083    c2.091,2.069,4.821,3.115,7.552,3.115c2.731,0,5.461-1.045,7.531-3.115l32-32C225.03,110.046,225.03,103.283,220.87,99.123z" fill="#ffffff" data-original="#000000" style="" class=""/>
	</g>
</g>
<g xmlns="http://www.w3.org/2000/svg">
	<g>
		<path d="M412.87,291.123c-4.16-4.16-10.923-4.16-15.083,0l-32,32c-4.16,4.16-4.16,10.923,0,15.083    c2.091,2.069,4.821,3.115,7.552,3.115c2.731,0,5.461-1.045,7.531-3.115l32-32C417.03,302.046,417.03,295.283,412.87,291.123z" fill="#ffffff" data-original="#000000" style="" class=""/>
	</g>
</g>
<g xmlns="http://www.w3.org/2000/svg">
	<g>
		<path d="M444.87,323.123c-4.16-4.16-10.923-4.16-15.083,0l-21.333,21.333c-4.16,4.16-4.16,10.923,0,15.083    c2.091,2.069,4.821,3.115,7.552,3.115c2.731,0,5.461-1.045,7.531-3.115l21.333-21.333    C449.03,334.046,449.03,327.283,444.87,323.123z" fill="#ffffff" data-original="#000000" style="" class=""/>
	</g>
</g>
<g xmlns="http://www.w3.org/2000/svg">
	<g>
		<path d="M476.87,355.123c-4.16-4.16-10.923-4.16-15.083,0l-32,32c-4.16,4.16-4.16,10.923,0,15.083    c2.091,2.069,4.821,3.115,7.552,3.115c2.731,0,5.461-1.045,7.531-3.115l32-32C481.03,366.046,481.03,359.283,476.87,355.123z" fill="#ffffff" data-original="#000000" style="" class=""/>
	</g>
</g>
<g xmlns="http://www.w3.org/2000/svg">
	<g>
		<path d="M496.39,61.939l-46.336-46.336c-20.779-20.8-54.613-20.8-75.413,0L45.787,344.456c-1.28,1.28-2.219,2.859-2.709,4.608    L0.411,498.398c-1.067,3.733-0.021,7.744,2.709,10.475c2.048,2.027,4.757,3.115,7.552,3.115c0.981,0,1.963-0.128,2.944-0.405    l149.333-42.667c1.749-0.491,3.328-1.429,4.608-2.709L496.39,137.352C517.19,116.574,517.19,82.739,496.39,61.939z     M481.307,122.27L154.417,449.16L26.203,485.79l36.629-128.213L389.723,30.686c12.48-12.48,32.768-12.48,45.248,0l46.336,46.336    C493.787,89.502,493.787,109.79,481.307,122.27z" fill="#ffffff" data-original="#000000" style="" class=""/>
	</g>
</g>
<g xmlns="http://www.w3.org/2000/svg">
	<g>
		<path d="M496.39,61.939l-46.336-46.336c-20.779-20.8-54.613-20.8-75.413,0L45.809,344.456c-4.16,4.16-4.16,10.923,0,15.083    c4.16,4.16,10.923,4.16,15.083,0L389.723,30.686c12.48-12.48,32.768-12.48,45.248,0l46.336,46.336    c12.48,12.48,12.48,32.768,0,45.248L152.454,451.123c-4.16,4.16-4.16,10.923,0,15.083c2.091,2.069,4.821,3.115,7.552,3.115    s5.461-1.045,7.552-3.115L496.39,137.352C517.19,116.574,517.19,82.739,496.39,61.939z" fill="#ffffff" data-original="#000000" style="" class=""/>
	</g>
</g>
<g xmlns="http://www.w3.org/2000/svg">
	<g>
		<path d="M167.536,451.123L60.87,344.456c-4.16-4.16-10.923-4.16-15.083,0c-4.16,4.16-4.16,10.923,0,15.083l106.667,106.667    c2.091,2.069,4.821,3.115,7.552,3.115s5.461-1.045,7.531-3.115C171.697,462.046,171.697,455.283,167.536,451.123z" fill="#ffffff" data-original="#000000" style="" class=""/>
	</g>
</g>
<g xmlns="http://www.w3.org/2000/svg">
	<g>
		<path d="M444.87,67.123c-4.16-4.16-10.923-4.16-15.083,0L131.121,365.79c-4.16,4.16-4.16,10.923,0,15.083    c2.091,2.069,4.821,3.115,7.552,3.115s5.461-1.045,7.531-3.115L444.87,82.206C449.03,78.046,449.03,71.283,444.87,67.123z" fill="#ffffff" data-original="#000000" style="" class=""/>
	</g>
</g>
<g xmlns="http://www.w3.org/2000/svg">
</g>
<g xmlns="http://www.w3.org/2000/svg">
</g>
<g xmlns="http://www.w3.org/2000/svg">
</g>
<g xmlns="http://www.w3.org/2000/svg">
</g>
<g xmlns="http://www.w3.org/2000/svg">
</g>
<g xmlns="http://www.w3.org/2000/svg">
</g>
<g xmlns="http://www.w3.org/2000/svg">
</g>
<g xmlns="http://www.w3.org/2000/svg">
</g>
<g xmlns="http://www.w3.org/2000/svg">
</g>
<g xmlns="http://www.w3.org/2000/svg">
</g>
<g xmlns="http://www.w3.org/2000/svg">
</g>
<g xmlns="http://www.w3.org/2000/svg">
</g>
<g xmlns="http://www.w3.org/2000/svg">
</g>
<g xmlns="http://www.w3.org/2000/svg">
</g>
<g xmlns="http://www.w3.org/2000/svg">
</g>
</g></svg>
